# xmcd CD database file
#
# Track frame offsets:
#	150
#	15232
#	30457
#	67420
#	93182
#	116307
#	137395
#	159520
#	176020
#	193457
#
# Disc length: 2788 seconds
#
# Revision: 4
# Processed by: cddbd v1.5.1PL2 Copyright (c) Steve Scherf et al.
# Submitted via: CDex 1.51
#
DISCID=7c0ae20a
DTITLE=Big Twist and the Mellow Fellows - Live From Chicago! Bigger Than Life!
DYEAR=1987
DGENRE=Blues
TTITLE0=The Sweet Sound of Rythm And Blues
TTITLE1=Funky Tom's Place
TTITLE2=Steamroller Blues
TTITLE3=Too Much Barbeque
TTITLE4=I Live The Life I Love
TTITLE5=Turning Point
TTITLE6=I'm Coming Home
TTITLE7=Built For Comfort
TTITLE8=Polk Salad Annie
TTITLE9=300 Pounds Of Heavenly Joy
EXTD=YEAR: 1987
EXTT0=
EXTT1=
EXTT2=
EXTT3=
EXTT4=
EXTT5=
EXTT6=
EXTT7=
EXTT8=
EXTT9=
PLAYORDER=
